<svg id="Layer_3" data-name="Layer 3" xmlns="http://www.w3.org/2000/svg" xmlns:xlink="http://www.w3.org/1999/xlink" viewBox="0 0 1600 900"><defs><style>.cls-1{fill:none;}.cls-2{clip-path:url(#clip-path);}.cls-3{fill:#263238;}.cls-4{clip-path:url(#clip-path-2);}.cls-16,.cls-5{fill:#36474f;}.cls-6{fill:#445a65;}.cls-7{fill:#cfd8dc;}.cls-8{fill:#b0bec5;}.cls-16,.cls-9{opacity:0.5;}.cls-10{fill:#536e7b;}.cls-11{fill:#008390;}.cls-12{fill:#ff6f00;}.cls-13{fill:#5f7d8c;}.cls-14{clip-path:url(#clip-path-3);}.cls-15{fill:#ff9000;}.cls-17{fill:#006065;}</style><clipPath id="clip-path"><rect class="cls-1" width="1600" height="900"/></clipPath><clipPath id="clip-path-2"><polygon class="cls-1" points="1606 905.2 -4.04 901.16 -4.04 -30.29 1606 -26.25 1606 905.2"/></clipPath><clipPath id="clip-path-3"><rect class="cls-1" x="1406.47" y="84.87" width="199.53" height="638.36"/></clipPath></defs><title>00</title><g class="cls-2"><rect class="cls-3" x="-4.87" y="-4.87" width="1610.87" height="910.07"/><g class="cls-4"><path class="cls-5" d="M1782.33,1098.19S1541.7,870.5,1062.78,826.08,300.07,529.2,300.07,529.2,53,338-138.76,295.27l173-401s341.53,4.4,712.61,310.34,750.37,326.78,750.37,326.78,310.08,38.41,476.22,143.25Z"/><path class="cls-6" d="M1827.67,995.56S1566,817.47,1103.5,736,334.71,455.3,334.71,455.3,72.15,300.86-116.6,251.62L-8.88,2.47s326,39.86,723,284.3,761.3,299.37,761.3,299.37,300.85,59.17,474,147.15Z"/></g><path class="cls-7" d="M307.53,648.13a23.63,23.63,0,0,0,28.24,17.61l23-5.27,18.52,80.08a35.32,35.32,0,0,0,68.85-15.82l-18.52-80.08,45.9-10.54L492,714.19a35.32,35.32,0,0,0,68.85-15.82l-18.52-80.08,23-5.27a23.54,23.54,0,0,0,17.66-28.15L530,356.05,254.62,419.32Z"/><polygon class="cls-8" points="582.93 584.4 307.92 648.14 274.87 506.46 549.87 442.72 582.93 584.4"/><path class="cls-7" d="M442.7,236.5l23-36.6a11.82,11.82,0,0,0-20.05-12.5l-26.14,41.67a138,138,0,0,0-63.92-.5A139.67,139.67,0,0,0,297.83,257l-42-26a11.8,11.8,0,1,0-12.54,20l37,23.07a140.17,140.17,0,0,0-30.68,123.43L525,334.22A140.21,140.21,0,0,0,442.7,236.5Z"/><path class="cls-5" d="M284.25,390.32a105.9,105.9,0,0,1,206.34-47.82"/><polygon class="cls-7" points="503.06 306.7 257.57 363.6 264.67 394.02 510.16 337.12 503.06 306.7"/><g class="cls-9"><polygon class="cls-10" points="433.71 662.25 363.65 678.49 359.31 659.86 429.36 643.63 433.71 662.25"/></g><g class="cls-9"><polygon class="cls-10" points="545.8 636.27 475.74 652.51 471.4 633.88 541.46 617.65 545.8 636.27"/></g><path class="cls-10" d="M406.4,521.12A22.93,22.93,0,1,1,378.86,504,22.86,22.86,0,0,1,406.4,521.12Z"/><path class="cls-8" d="M397.16,523.26a13.45,13.45,0,1,1-16.15-10A13.41,13.41,0,0,1,397.16,523.26Z"/><polygon class="cls-8" points="480.87 437.38 334.43 471.33 323.82 425.84 470.25 391.9 480.87 437.38"/><path class="cls-11" d="M385.5,538.62l-98,22.72-5.6-24,98-22.72a12.36,12.36,0,0,1,14.84,9.21h0A12.32,12.32,0,0,1,385.5,538.62Z"/><path class="cls-10" d="M420,579.24a22.93,22.93,0,1,1-27.54-17.1A22.86,22.86,0,0,1,420,579.24Z"/><path class="cls-8" d="M410.72,581.38a13.45,13.45,0,1,1-16.15-10A13.41,13.41,0,0,1,410.72,581.38Z"/><path class="cls-12" d="M399.06,596.74l-98,22.72-5.6-24,98-22.72a12.36,12.36,0,0,1,14.84,9.21h0A12.32,12.32,0,0,1,399.06,596.74Z"/><path class="cls-10" d="M452.83,571.62a22.93,22.93,0,1,1,27.54,17.1A22.86,22.86,0,0,1,452.83,571.62Z"/><path class="cls-8" d="M462.07,569.48a13.45,13.45,0,1,1,16.15,10A13.41,13.41,0,0,1,462.07,569.48Z"/><path class="cls-10" d="M439.27,513.5a22.93,22.93,0,1,1,27.54,17.1A22.86,22.86,0,0,1,439.27,513.5Z"/><path class="cls-8" d="M448.51,511.36a13.45,13.45,0,1,1,16.15,10A13.41,13.41,0,0,1,448.51,511.36Z"/><path class="cls-12" d="M460.17,496l98-22.72,5.6,24-98,22.72a12.36,12.36,0,0,1-14.84-9.21h0A12.32,12.32,0,0,1,460.17,496Z"/><path class="cls-8" d="M308.48,439.94a44.23,44.23,0,1,1-53.11-33A44.09,44.09,0,0,1,308.48,439.94Z"/><path class="cls-8" d="M576,377.94a44.23,44.23,0,1,1-53.11-33A44.09,44.09,0,0,1,576,377.94Z"/><path class="cls-7" d="M156.37,623.9h0A35.21,35.21,0,0,1,145,575.32l87.42-140a35.44,35.44,0,0,1,48.73-11.29h0a35.21,35.21,0,0,1,11.33,48.58l-87.42,140A35.44,35.44,0,0,1,156.37,623.9Z"/><polygon class="cls-8" points="226.22 579.23 165.73 541.68 211.99 467.62 272.47 505.17 226.22 579.23"/><g class="cls-9"><polygon class="cls-10" points="254.54 535.29 193.24 497.23 202.52 482.37 263.82 520.42 254.54 535.29"/></g><g class="cls-9"><polygon class="cls-10" points="235.97 565.02 174.67 526.96 183.95 512.1 245.26 550.15 235.97 565.02"/></g><path class="cls-7" d="M706.82,496.32h0a35.21,35.21,0,0,0-11.33-48.58L555.07,360.57a35.44,35.44,0,0,0-48.73,11.29h0a35.21,35.21,0,0,0,11.33,48.58l140.42,87.17A35.44,35.44,0,0,0,706.82,496.32Z"/><polygon class="cls-8" points="624.37 486.95 662.03 426.65 587.73 380.53 550.07 440.83 624.37 486.95"/><g class="cls-9"><polygon class="cls-10" points="579.5 459.97 617.66 398.86 602.75 389.6 564.59 450.71 579.5 459.97"/></g><g class="cls-9"><polygon class="cls-10" points="609.32 478.49 647.49 417.37 632.58 408.12 594.41 469.23 609.32 478.49"/></g><polygon class="cls-8" points="444.4 718.55 376.45 734.3 368.79 701.45 436.74 685.7 444.4 718.55"/><polygon class="cls-8" points="558.21 692.17 490.27 707.92 482.6 675.07 550.55 659.32 558.21 692.17"/><rect class="cls-13" x="824.58" y="351.63" width="104.25" height="146.98" transform="translate(452.58 1302.3) rotate(-90.07)"/><rect class="cls-13" x="824.92" y="235.72" width="104.25" height="146.98" transform="translate(568.83 1186.6) rotate(-90.07)"/><rect class="cls-13" x="983.43" y="351.45" width="104.25" height="146.98" transform="translate(611.79 1460.97) rotate(-90.07)"/><rect class="cls-13" x="983.77" y="235.54" width="104.25" height="146.98" transform="translate(728.05 1345.27) rotate(-90.07)"/><rect class="cls-13" x="1141.35" y="351.27" width="104.25" height="146.98" transform="translate(770.08 1618.72) rotate(-90.07)"/><rect class="cls-13" x="1141.7" y="235.36" width="104.25" height="146.98" transform="translate(886.33 1503.02) rotate(-90.07)"/><rect class="cls-13" x="1299.28" y="351.09" width="104.25" height="146.98" transform="translate(928.36 1776.46) rotate(-90.07)"/><rect class="cls-13" x="1299.62" y="235.18" width="104.25" height="146.98" transform="translate(1044.62 1660.77) rotate(-90.07)"/><g class="cls-14"><polygon class="cls-7" points="1785 588.87 1785 131 1434 131 1434 588.87 1434 588.25 1551.03 704.82 1669.38 705.67 1785 588.18 1785 588.87"/><polyline class="cls-8" points="1524.49 678.49 1551.25 705.12 1669.41 705.83 1696.39 678.49"/></g><circle class="cls-8" cx="1486.88" cy="508.16" r="22.08"/><circle class="cls-8" cx="1486.88" cy="440.35" r="22.08"/><rect class="cls-15" x="1464.8" y="188.47" width="44.17" height="165.67"/><rect class="cls-15" x="1525.52" y="188.47" width="16.59" height="165.67" transform="translate(3067.64 542.6) rotate(180)"/><rect class="cls-8" x="1434.45" y="582.34" width="171.55" height="30.17"/><rect class="cls-8" x="1434.45" y="130.42" width="171.55" height="30.17"/><path class="cls-13" d="M1117.83,672.26c-56.48,0-119-8.68-186.56-30.89-2.88-1-275.86-93.3-450.32-63.76a12.78,12.78,0,1,1-4.26-25.19c76.17-12.9,177.26-5.89,300.47,20.81C868.46,593,938.7,616.91,939.4,617.15c172.06,56.54,309.7,21.42,394.83-18,92.19-42.7,144-99,144.49-99.56a12.77,12.77,0,1,1,18.91,17.18c-2.23,2.46-55.82,60.72-152.65,105.56A539.65,539.65,0,0,1,1117.83,672.26Z"/><path class="cls-8" d="M215.53,633.46L144.13,540a28.31,28.31,0,0,0-2.81-30c-6-7.91-13.94-12.88-24.64-11.12l9.53,12.47L119,528.2l-18.17,2.49-9.53-12.47c-2,7.93-1.89,18.88,4.15,26.78A28.47,28.47,0,0,0,124,555.76l71.16,93.13A28.46,28.46,0,0,0,198,679.19c6,7.91,16.58,10.86,24.75,11L212.2,676.4l4.46-12.73L224.1,658l13.46-1,10.57,13.83C252.63,661,250,652,244,644.07A28.45,28.45,0,0,0,215.53,633.46Z"/><circle class="cls-6" cx="912.18" cy="149.84" r="8.26"/><rect class="cls-6" x="812.59" y="80.03" width="4.94" height="23.36"/><rect class="cls-6" x="803.39" y="89.25" width="23.36" height="4.94"/><circle class="cls-13" cx="139.69" cy="161.61" r="8.26"/><rect class="cls-13" x="69.63" y="226.74" width="4.94" height="23.36"/><rect class="cls-13" x="60.43" y="235.96" width="23.36" height="4.94"/><circle class="cls-13" cx="1344.22" cy="727.76" r="8.26"/><rect class="cls-13" x="1274.17" y="792.89" width="4.94" height="23.36"/><rect class="cls-13" x="1264.96" y="802.1" width="23.36" height="4.94"/><rect class="cls-6" x="93" y="80.04" width="4.94" height="23.36"/><rect class="cls-6" x="83.79" y="89.25" width="23.36" height="4.94"/><circle class="cls-6" cx="468.89" cy="648.79" r="8.26"/><circle class="cls-6" cx="1442.71" cy="690.23" r="8.26"/><circle class="cls-6" cx="250.39" cy="748.36" r="8.26"/><rect class="cls-6" x="603.57" y="816.05" width="4.94" height="23.36"/><rect class="cls-6" x="594.37" y="825.26" width="23.36" height="4.94"/><ellipse class="cls-11" cx="1264.1" cy="116.12" rx="44.62" ry="45.48"/><path class="cls-16" d="M1263.63,161.61a44,44,0,0,0,7.3-.62,50.86,50.86,0,0,1-19.11-11.31c-8.92-8.19-12.79-20.38-13.31-32.14-0.51-11.32,5.43-24.26,13.31-32.14a47.07,47.07,0,0,1,25.1-12.71,43.82,43.82,0,0,0-13.3-2.05C1239,70.64,1219,91,1219,116.12S1239,161.61,1263.63,161.61Z"/><circle class="cls-17" cx="1302.93" cy="118.56" r="1.7"/><circle class="cls-17" cx="1270.32" cy="145.56" r="3.39"/><circle class="cls-17" cx="1273.34" cy="89.17" r="1.7"/><circle class="cls-17" cx="1289.76" cy="115.01" r="3.39"/></g></svg>