<svg id="Layer_1" data-name="Layer 1" xmlns="http://www.w3.org/2000/svg" xmlns:xlink="http://www.w3.org/1999/xlink" viewBox="0 0 1600 900"><defs><style>.cls-1,.cls-11,.cls-13,.cls-21,.cls-4,.cls-7,.cls-9{fill:none;}.cls-2{fill:#536e7b;}.cls-3{clip-path:url(#clip-path);}.cls-4{stroke:#36474f;stroke-width:1.1px;opacity:0.26;}.cls-11,.cls-13,.cls-4,.cls-7,.cls-9{stroke-miterlimit:10;}.cls-5{fill:#00acc3;}.cls-6{opacity:0.31;}.cls-13,.cls-7{stroke:#45d0e3;}.cls-7{stroke-width:1.14px;}.cls-8{fill:#0097a8;}.cls-11,.cls-9{stroke:#b0ebf3;}.cls-21,.cls-9{stroke-width:9px;}.cls-10{fill:#b0ebf3;}.cls-11,.cls-13{stroke-width:9.38px;}.cls-12{fill:#45d0e3;}.cls-14{fill:#ffb400;}.cls-15{fill:#fff8e0;}.cls-16{fill:#8fa4af;}.cls-17{fill:#ff6f00;}.cls-18{fill:#263238;}.cls-19{fill:#ffcb00;}.cls-20{fill:#ffd63f;}.cls-21{stroke:#5f7d8c;stroke-linejoin:bevel;}.cls-22{fill:#5f7d8c;}.cls-23{fill:#ffe17b;}</style><clipPath id="clip-path"><rect class="cls-1" x="350" y="-350" width="900" height="1600" transform="translate(1250 -350) rotate(90)"/></clipPath></defs><title>00</title><rect class="cls-2" y="0.18" width="1600" height="900"/><g class="cls-3"><line class="cls-4" x1="1758.07" y1="815.35" x2="-296.47" y2="815.35"/><line class="cls-4" x1="1758.07" y1="858.45" x2="-296.47" y2="858.45"/><line class="cls-4" x1="1758.07" y1="772.25" x2="-296.47" y2="772.25"/><line class="cls-4" x1="1758.07" y1="729.15" x2="-296.47" y2="729.15"/><line class="cls-4" x1="1758.07" y1="642.96" x2="-296.47" y2="642.96"/><line class="cls-4" x1="1758.07" y1="686.06" x2="-296.47" y2="686.06"/><line class="cls-4" x1="1758.07" y1="599.86" x2="-296.47" y2="599.86"/><line class="cls-4" x1="1758.07" y1="556.76" x2="-296.47" y2="556.76"/><line class="cls-4" x1="1758.07" y1="470.56" x2="-296.47" y2="470.56"/><line class="cls-4" x1="1758.07" y1="427.46" x2="-296.47" y2="427.46"/><line class="cls-4" x1="1758.07" y1="513.66" x2="-296.47" y2="513.66"/><line class="cls-4" x1="1758.07" y1="384.37" x2="-296.47" y2="384.37"/><line class="cls-4" x1="1758.07" y1="298.17" x2="-296.47" y2="298.17"/><line class="cls-4" x1="1758.07" y1="341.27" x2="-296.47" y2="341.27"/><line class="cls-4" x1="1758.07" y1="255.07" x2="-296.47" y2="255.07"/><line class="cls-4" x1="1758.07" y1="211.97" x2="-296.47" y2="211.97"/><line class="cls-4" x1="1758.07" y1="125.78" x2="-296.47" y2="125.78"/><line class="cls-4" x1="1758.07" y1="168.87" x2="-296.47" y2="168.87"/><line class="cls-4" x1="1758.07" y1="82.68" x2="-296.47" y2="82.68"/><line class="cls-4" x1="1758.07" y1="39.58" x2="-296.47" y2="39.58"/></g><rect class="cls-5" x="172.35" y="110.57" width="1130.76" height="680.81"/><g class="cls-6"><line class="cls-7" x1="1304.38" y1="131.24" x2="172.6" y2="131.24"/><line class="cls-7" x1="1304.38" y1="153.31" x2="172.6" y2="153.31"/><line class="cls-7" x1="1304.38" y1="175.38" x2="172.6" y2="175.38"/><line class="cls-7" x1="1304.38" y1="197.45" x2="172.6" y2="197.45"/><line class="cls-7" x1="1304.38" y1="219.52" x2="172.6" y2="219.52"/><line class="cls-7" x1="1304.38" y1="241.59" x2="172.6" y2="241.59"/><line class="cls-7" x1="1304.38" y1="263.66" x2="172.6" y2="263.66"/><line class="cls-7" x1="1304.38" y1="285.73" x2="172.6" y2="285.73"/><line class="cls-7" x1="1304.38" y1="307.8" x2="172.6" y2="307.8"/><line class="cls-7" x1="1304.38" y1="329.87" x2="172.6" y2="329.87"/><line class="cls-7" x1="1304.38" y1="351.94" x2="172.6" y2="351.94"/><line class="cls-7" x1="1304.38" y1="374.01" x2="172.6" y2="374.01"/><line class="cls-7" x1="1304.38" y1="396.08" x2="172.6" y2="396.08"/><line class="cls-7" x1="1304.38" y1="418.15" x2="172.6" y2="418.15"/><line class="cls-7" x1="1304.38" y1="440.22" x2="172.6" y2="440.22"/><line class="cls-7" x1="1304.38" y1="462.29" x2="172.6" y2="462.29"/><line class="cls-7" x1="1304.38" y1="484.36" x2="172.6" y2="484.36"/><line class="cls-7" x1="1304.38" y1="506.43" x2="172.6" y2="506.43"/><line class="cls-7" x1="1304.38" y1="528.5" x2="172.6" y2="528.5"/><line class="cls-7" x1="1304.38" y1="550.57" x2="172.6" y2="550.57"/><line class="cls-7" x1="1304.38" y1="572.64" x2="172.6" y2="572.64"/><line class="cls-7" x1="1304.38" y1="594.71" x2="172.6" y2="594.71"/><line class="cls-7" x1="1304.38" y1="616.78" x2="172.6" y2="616.78"/><line class="cls-7" x1="1304.38" y1="638.85" x2="172.6" y2="638.85"/><line class="cls-7" x1="1304.38" y1="660.92" x2="172.6" y2="660.92"/><line class="cls-7" x1="1304.38" y1="682.99" x2="172.6" y2="682.99"/><line class="cls-7" x1="1304.38" y1="705.06" x2="172.6" y2="705.06"/><line class="cls-7" x1="1304.38" y1="727.13" x2="172.6" y2="727.13"/><line class="cls-7" x1="1304.38" y1="749.2" x2="172.6" y2="749.2"/><line class="cls-7" x1="1304.38" y1="771.27" x2="172.6" y2="771.27"/><line class="cls-7" x1="172.6" y1="110.57" x2="172.6" y2="791.37"/><line class="cls-7" x1="194.85" y1="110.57" x2="194.85" y2="791.37"/><line class="cls-7" x1="217.1" y1="110.57" x2="217.1" y2="791.37"/><line class="cls-7" x1="239.35" y1="110.57" x2="239.35" y2="791.37"/><line class="cls-7" x1="261.6" y1="110.57" x2="261.6" y2="791.37"/><line class="cls-7" x1="283.85" y1="110.57" x2="283.85" y2="791.37"/><line class="cls-7" x1="306.1" y1="110.57" x2="306.1" y2="791.37"/><line class="cls-7" x1="328.35" y1="110.57" x2="328.35" y2="791.37"/><line class="cls-7" x1="350.6" y1="110.57" x2="350.6" y2="791.37"/><line class="cls-7" x1="372.85" y1="110.57" x2="372.85" y2="791.37"/><line class="cls-7" x1="395.1" y1="110.57" x2="395.1" y2="791.37"/><line class="cls-7" x1="417.35" y1="110.57" x2="417.35" y2="791.37"/><line class="cls-7" x1="439.6" y1="110.57" x2="439.6" y2="791.37"/><line class="cls-7" x1="461.85" y1="110.57" x2="461.85" y2="791.37"/><line class="cls-7" x1="484.1" y1="110.57" x2="484.1" y2="791.37"/><line class="cls-7" x1="506.35" y1="110.57" x2="506.35" y2="791.37"/><line class="cls-7" x1="528.6" y1="110.57" x2="528.6" y2="791.37"/><line class="cls-7" x1="550.85" y1="110.57" x2="550.85" y2="791.37"/><line class="cls-7" x1="573.1" y1="110.57" x2="573.1" y2="791.37"/><line class="cls-7" x1="595.35" y1="110.57" x2="595.35" y2="791.37"/><line class="cls-7" x1="617.6" y1="110.57" x2="617.6" y2="791.37"/><line class="cls-7" x1="639.85" y1="110.57" x2="639.85" y2="791.37"/><line class="cls-7" x1="662.1" y1="110.57" x2="662.1" y2="791.37"/><line class="cls-7" x1="684.35" y1="110.57" x2="684.35" y2="791.37"/><line class="cls-7" x1="706.6" y1="110.57" x2="706.6" y2="791.37"/><line class="cls-7" x1="728.85" y1="110.57" x2="728.85" y2="791.37"/><line class="cls-7" x1="751.1" y1="110.57" x2="751.1" y2="791.37"/><line class="cls-7" x1="773.35" y1="110.57" x2="773.35" y2="791.37"/><line class="cls-7" x1="795.6" y1="110.57" x2="795.6" y2="791.37"/><line class="cls-7" x1="817.85" y1="110.57" x2="817.85" y2="791.37"/><line class="cls-7" x1="840.1" y1="110.57" x2="840.1" y2="791.37"/><line class="cls-7" x1="862.35" y1="110.57" x2="862.35" y2="791.37"/><line class="cls-7" x1="884.6" y1="110.57" x2="884.6" y2="791.37"/><line class="cls-7" x1="906.85" y1="110.57" x2="906.85" y2="791.37"/><line class="cls-7" x1="929.1" y1="110.57" x2="929.1" y2="791.37"/><line class="cls-7" x1="951.35" y1="110.57" x2="951.35" y2="791.37"/><line class="cls-7" x1="973.6" y1="110.57" x2="973.6" y2="791.37"/><line class="cls-7" x1="995.85" y1="110.57" x2="995.85" y2="791.37"/><line class="cls-7" x1="1018.1" y1="110.57" x2="1018.1" y2="791.37"/><line class="cls-7" x1="1040.35" y1="110.57" x2="1040.35" y2="791.37"/><line class="cls-7" x1="1062.6" y1="110.57" x2="1062.6" y2="791.37"/><line class="cls-7" x1="1084.85" y1="110.57" x2="1084.85" y2="791.37"/><line class="cls-7" x1="1107.1" y1="110.57" x2="1107.1" y2="791.37"/><line class="cls-7" x1="1129.35" y1="110.57" x2="1129.35" y2="791.37"/><line class="cls-7" x1="1151.6" y1="110.57" x2="1151.6" y2="791.37"/><line class="cls-7" x1="1173.85" y1="110.57" x2="1173.85" y2="791.37"/><line class="cls-7" x1="1196.1" y1="110.57" x2="1196.1" y2="791.37"/><line class="cls-7" x1="1218.35" y1="110.57" x2="1218.35" y2="791.37"/><line class="cls-7" x1="1240.6" y1="110.57" x2="1240.6" y2="791.37"/><line class="cls-7" x1="1262.85" y1="110.57" x2="1262.85" y2="791.37"/><line class="cls-7" x1="1285.1" y1="110.57" x2="1285.1" y2="791.37"/></g><rect class="cls-8" x="269.06" y="357.81" width="67.47" height="9.55"/><rect class="cls-8" x="269.06" y="383.4" width="90.83" height="9.55"/><rect class="cls-8" x="269.06" y="408.98" width="31.76" height="9.55"/><rect class="cls-8" x="269.06" y="508.46" width="31.76" height="9.55"/><rect class="cls-8" x="269.06" y="434.56" width="139.93" height="9.55"/><rect class="cls-8" x="269.06" y="460.15" width="93.65" height="9.55"/><rect class="cls-8" x="269.06" y="534.76" width="139.93" height="9.55"/><rect class="cls-8" x="269.06" y="560.34" width="93.65" height="9.55"/><rect class="cls-8" x="269.06" y="485.73" width="139.93" height="9.55"/><path class="cls-9" d="M921.2,633.42a28.17,28.17,0,0,1-18,24.9c-37.68,14.37-129.71,40-235,0a28.34,28.34,0,0,1-18.2-24.64l-0.14-1.84L649.4,236.51l0.12-1.53a28.17,28.17,0,0,1,18-24.9c37.68-14.37,129.71-40,235,0a28.34,28.34,0,0,1,18.2,24.64l0.14,1.84,0.39,395.34Z"/><rect class="cls-10" x="758.58" y="645.96" width="53.56" height="7.3" rx="3.37" ry="3.37"/><circle class="cls-10" cx="785.2" cy="218.3" r="7.3"/><line class="cls-9" x1="920.96" y1="246.36" x2="649.44" y2="246.36"/><line class="cls-9" x1="920.96" y1="621.97" x2="649.44" y2="621.97"/><line class="cls-11" x1="651.81" y1="317.93" x2="915.8" y2="317.93"/><rect class="cls-10" x="687.05" y="504.49" width="197.7" height="9.19"/><rect class="cls-10" x="687.05" y="528.77" width="197.7" height="9.19"/><rect class="cls-10" x="687.05" y="553.49" width="133.72" height="9.19"/><circle class="cls-10" cx="863.23" cy="317.56" r="26.25"/><rect class="cls-11" x="691.46" y="371.55" width="187.8" height="94.82"/><rect class="cls-12" x="249.08" y="709.9" width="140.39" height="9.55"/><rect class="cls-12" x="411.77" y="709.9" width="44.5" height="9.55"/><rect class="cls-9" x="217.1" y="153.31" width="1045.74" height="602.75"/><polyline class="cls-9" points="217.1 675.31 494.31 675.31 494.31 756.06"/><circle class="cls-8" cx="314.47" cy="252.56" r="46.17"/><rect class="cls-11" x="1087.76" y="187.21" width="55.62" height="492.54" rx="10.97" ry="10.97"/><rect class="cls-10" x="1089.91" y="247.25" width="53.56" height="7.3" rx="3.37" ry="3.37" transform="translate(1366.49 -866.03) rotate(89.94)"/><rect class="cls-10" x="1089.91" y="318.54" width="53.56" height="7.3" rx="3.37" ry="3.37" transform="translate(1437.78 -794.82) rotate(89.94)"/><circle class="cls-10" cx="1115.57" cy="650.68" r="7.3"/><polyline class="cls-13" points="982.68 408.29 982.68 190.19 956.89 190.19"/><polyline class="cls-13" points="956.89 677.18 982.68 677.18 982.68 457.57"/><line class="cls-13" x1="956.89" y1="623.03" x2="982.68" y2="623.03"/><line class="cls-13" x1="956.89" y1="245.83" x2="982.68" y2="245.83"/><rect class="cls-12" x="954.32" y="427.63" width="54.77" height="9.55"/><rect class="cls-12" x="1158.38" y="405.69" width="54.77" height="9.55" transform="translate(1596.23 -775.3) rotate(90)"/><polyline class="cls-13" points="649.4 700.23 649.4 724.57 921.32 724.57 921.32 700.23"/><polyline class="cls-13" points="1087.51 700.23 1087.51 724.57 1143.39 724.57 1143.39 700.23"/><polyline class="cls-13" points="1169.52 222.93 1196.89 222.93 1196.89 351.94 1169.52 351.94"/><polyline class="cls-13" points="818.21 339.86 573.36 339.86 538.13 299.24"/><rect class="cls-12" x="505.63" y="271.69" width="54.77" height="9.55" transform="translate(1066.02 552.92) rotate(-180)"/><polyline class="cls-13" points="735.53 650.87 573.36 650.87 538.13 610.25"/><rect class="cls-12" x="505.63" y="582.69" width="54.77" height="9.55" transform="translate(1066.02 1174.94) rotate(-180)"/><rect class="cls-14" x="129.01" y="284.15" width="63.98" height="315" transform="translate(495.3 772.15) rotate(154.7)"/><polygon class="cls-15" points="257.23 570.38 258.69 648.32 199.39 597.72 208.14 574.41 228.31 584.05 234.4 562 257.23 570.38"/><rect class="cls-16" x="78.4" y="314.8" width="63.98" height="39.54" transform="translate(353.17 589.89) rotate(154.7)"/><path class="cls-17" d="M58.29,264.75h64a0,0,0,0,1,0,0v25.41a29.16,29.16,0,0,1-29.16,29.16H87.45a29.16,29.16,0,0,1-29.16-29.16V264.75a0,0,0,0,1,0,0Z" transform="translate(296.7 517.48) rotate(154.7)"/><polygon class="cls-18" points="258.69 648.32 257.95 609.03 228.73 622.84 258.69 648.32"/><polygon class="cls-19" points="132.33 346.07 234.4 562 228.31 584.05 208.14 574.41 106.08 358.48 132.33 346.07"/><polygon class="cls-20" points="199.39 597.72 89.92 366.12 106.08 358.48 208.14 574.41 199.39 597.72"/><rect class="cls-20" x="1428.35" y="196.57" width="32" height="83.2" transform="translate(1682.52 -1206.18) rotate(90)"/><rect class="cls-19" x="1428.35" y="621.36" width="32" height="83.72" transform="translate(2107.57 -781.13) rotate(90)"/><rect class="cls-19" x="1428.35" y="363.87" width="32" height="174.87"/><path class="cls-20" d="M1518.89,110.46H1370.12V791.27h148.77V110.46Zm-116.7,127.11a42.16,42.16,0,1,1,42.16,42A42.06,42.06,0,0,1,1402.19,237.57Zm0.61,255.73V404.87a41.56,41.56,0,0,1,83.12,0V493.3A41.56,41.56,0,0,1,1402.79,493.3Zm-0.61,167.31a42.16,42.16,0,1,1,42.16,42A42.06,42.06,0,0,1,1402.19,660.61Z"/><circle class="cls-21" cx="1444.35" cy="238.17" r="42.16"/><circle class="cls-21" cx="1444.35" cy="663.22" r="42.16"/><rect class="cls-21" x="1358.37" y="409.14" width="171.97" height="83.12" rx="41.56" ry="41.56" transform="translate(1895.05 -993.65) rotate(90)"/><rect class="cls-22" x="1458.71" y="222.17" width="9.28" height="32"/><rect class="cls-22" x="1420.68" y="222.17" width="9.22" height="32"/><rect class="cls-22" x="1458.83" y="647.23" width="9.28" height="32"/><rect class="cls-22" x="1420.62" y="647.23" width="9.28" height="32"/><rect class="cls-22" x="1428.35" y="427.58" width="32" height="9.28"/><rect class="cls-22" x="1428.35" y="465.76" width="32" height="9.28"/><circle class="cls-23" cx="1444.35" cy="238.17" r="8.45"/><circle class="cls-23" cx="1444.35" cy="451.31" r="8.45"/><circle class="cls-23" cx="1444.35" cy="663.22" r="8.45"/><rect class="cls-14" x="1170.43" y="442.81" width="680.81" height="16.1" transform="translate(1961.7 -1059.98) rotate(90)"/><rect class="cls-14" x="1037.77" y="442.81" width="680.81" height="16.1" transform="translate(1829.04 -927.31) rotate(90)"/><rect class="cls-14" x="1426.89" y="94.67" width="34.93" height="66.68" transform="translate(1572.36 -1316.34) rotate(90)"/><rect class="cls-14" x="1426.89" y="740.46" width="34.93" height="66.68" transform="translate(2218.15 -670.55) rotate(90)"/></svg>